<?xml version="1.0" encoding="UTF-8"?>
<svg id="_레이어_1" data-name="레이어 1" xmlns="http://www.w3.org/2000/svg" viewBox="0 0 268.9 268.9">
  <defs>
    <style>
      .cls-1 {
        fill: #231815;
      }
    </style>
  </defs>
  <rect class="cls-1" x="83.58" y="78.87" width="117.48" height="10.26"/>
  <rect class="cls-1" x="83.58" y="103.46" width="51.68" height="44.13"/>
  <rect class="cls-1" x="83.58" y="158.62" width="51.68" height="7.16"/>
  <rect class="cls-1" x="83.58" y="178.94" width="51.68" height="7.16"/>
  <rect class="cls-1" x="149.19" y="103.24" width="51.88" height="7.35" transform="translate(-.69 1.14) rotate(-.37)"/>
  <rect class="cls-1" x="149.19" y="121.63" width="51.88" height="7.35" transform="translate(-.81 1.15) rotate(-.37)"/>
  <rect class="cls-1" x="149.19" y="140.6" width="51.88" height="7.35" transform="translate(-.94 1.15) rotate(-.37)"/>
  <rect class="cls-1" x="149.19" y="158.98" width="51.88" height="7.35" transform="translate(-1.06 1.15) rotate(-.37)"/>
  <rect class="cls-1" x="149.19" y="178.34" width="51.88" height="7.35" transform="translate(-1.18 1.15) rotate(-.37)"/>
  <path class="cls-1" d="M223.52,55.78H62.6c-1.38,0-2.51,1.12-2.51,2.51v22.26h-22.96v115.94c0,7.39,5.99,13.38,13.38,13.38h10.55c.26,0,.53-.01.79-.02.23.07.49.11.75.11h150.62c7.07,0,12.81-5.73,12.81-12.81V58.29c0-1.39-1.12-2.51-2.51-2.51ZM52.62,205.93c-6.35,0-11.49-5.14-11.49-11.49v-109.54h18.96c0,39.76,0,79.52,0,119.29-.01.34-.09,1-.57,1.4-.38.32-.85.34-1.09.34-1.05.02-3.11.04-5.82,0ZM220.05,195.53c0,4.9-3.97,8.88-8.88,8.88H68.4c-.83,0-1.55-.43-1.96-1.07-.24-.36-.37-.79-.37-1.26V63.66c0-1.29,1.04-2.33,2.33-2.33h149.33c1.28,0,2.32,1.04,2.32,2.33v131.87Z"/>
</svg>