<?xml version="1.0" encoding="UTF-8"?>
<svg id="_레이어_1" data-name="레이어 1" xmlns="http://www.w3.org/2000/svg" viewBox="0 0 105.87 94.39">
  <defs>
    <style>
      .cls-1 {
        fill: #9b9a9b;
      }
    </style>
  </defs>
  <path class="cls-1" d="M90.16,9.55c-2.08-5.58-7.44-9.55-13.74-9.55s-11.65,3.98-13.73,9.55H0v10.26h62.68c2.08,5.58,7.44,9.55,13.73,9.55s11.66-3.98,13.74-9.55h15.71v-10.26h-15.71ZM76.42,20.2c-3.04,0-5.51-2.47-5.51-5.52s2.47-5.52,5.51-5.52,5.52,2.47,5.52,5.52-2.47,5.52-5.52,5.52Z"/>
  <path class="cls-1" d="M27.25,32.48c-6.3,0-11.65,3.98-13.73,9.55H0v10.26h13.52c2.08,5.58,7.44,9.55,13.73,9.55s11.66-3.98,13.74-9.55h64.88v-10.26H41c-2.08-5.58-7.44-9.55-13.74-9.55ZM27.25,52.68c-3.04,0-5.51-2.47-5.51-5.52s2.47-5.52,5.51-5.52,5.52,2.47,5.52,5.52-2.47,5.52-5.52,5.52Z"/>
  <path class="cls-1" d="M76.42,65.03c-6.3,0-11.65,3.98-13.73,9.55H0v10.26h62.68c2.08,5.58,7.44,9.55,13.73,9.55s11.66-3.98,13.74-9.55h15.71v-10.26h-15.71c-2.08-5.58-7.44-9.55-13.74-9.55ZM76.42,85.23c-3.04,0-5.51-2.47-5.51-5.52s2.47-5.52,5.51-5.52,5.52,2.47,5.52,5.52-2.47,5.52-5.52,5.52Z"/>
</svg>