<?xml version="1.0" encoding="UTF-8"?>
<svg id="_레이어_1" data-name="레이어 1" xmlns="http://www.w3.org/2000/svg" viewBox="0 0 235.2 277.1">
  <defs>
    <style>
      .cls-1 {
        fill: #9b9a9b;
      }
    </style>
  </defs>
  <path class="cls-1" d="M52.38,76.97c-9.52,0-17.23,7.71-17.23,17.23s7.71,17.22,17.23,17.22,17.22-7.71,17.22-17.22-7.71-17.23-17.22-17.23ZM52.38,100.58c-3.53,0-6.39-2.85-6.39-6.38s2.86-6.39,6.39-6.39,6.38,2.86,6.38,6.39-2.85,6.38-6.38,6.38Z"/>
  <rect class="cls-1" x="89.99" y="85.49" width="98.32" height="12.26" rx="6.13" ry="6.13"/>
  <path class="cls-1" d="M52.38,136.58c-9.52,0-17.23,7.71-17.23,17.23s7.71,17.22,17.23,17.22,17.22-7.71,17.22-17.22-7.71-17.23-17.22-17.23ZM52.38,160.19c-3.53,0-6.39-2.85-6.39-6.38s2.86-6.39,6.39-6.39,6.38,2.86,6.38,6.39-2.85,6.38-6.38,6.38Z"/>
  <rect class="cls-1" x="89.99" y="145.1" width="98.32" height="12.26" rx="6.13" ry="6.13"/>
  <path class="cls-1" d="M52.38,196.2c-9.52,0-17.23,7.71-17.23,17.23s7.71,17.22,17.23,17.22,17.22-7.71,17.22-17.22-7.71-17.23-17.22-17.23ZM52.38,219.81c-3.53,0-6.39-2.85-6.39-6.38s2.86-6.39,6.39-6.39,6.38,2.86,6.38,6.39-2.85,6.38-6.38,6.38Z"/>
  <rect class="cls-1" x="89.99" y="204.71" width="98.32" height="12.26" rx="6.13" ry="6.13"/>
  <path class="cls-1" d="M208.89,13.36h-31.96c-2.43-7.74-9.66-13.36-18.2-13.36h-73.73c-8.55,0-15.78,5.62-18.2,13.36H26.31C11.78,13.36,0,25.14,0,39.67v211.12c0,14.53,11.78,26.31,26.31,26.31h182.58c14.53,0,26.31-11.78,26.31-26.31V39.67c0-14.53-11.78-26.31-26.31-26.31ZM78.45,13.36s.06-.07.09-.1c1.49-1.49,3.56-2.42,5.84-2.42h74.32c2.33,0,4.43.97,5.93,2.52,1.44,1.49,2.33,3.51,2.33,5.74,0,2.04-.75,3.92-1.98,5.36-.14.17-.28.33-.44.48-1.49,1.49-3.56,2.42-5.84,2.42h-74.32c-2.51,0-4.76-1.12-6.27-2.9-1.24-1.44-1.99-3.31-1.99-5.36,0-2.23.89-4.26,2.33-5.74ZM224.7,250.17c0,9.03-7.32,16.35-16.35,16.35H26.86c-9.03,0-16.35-7.32-16.35-16.35V40.81c0-9.03,7.32-16.35,16.35-16.35h39.83c2.31,7.94,9.63,13.73,18.31,13.73h73.73c8.68,0,16-5.79,18.31-13.73h31.31c9.03,0,16.35,7.32,16.35,16.35v209.36Z"/>
</svg>