<?xml version="1.0" encoding="UTF-8"?>
<svg id="_레이어_1" data-name="레이어 1" xmlns="http://www.w3.org/2000/svg" viewBox="0 0 79.36 85.63">
  <defs>
    <style>
      .cls-1 {
        fill: #9b9a9b;
      }
    </style>
  </defs>
  <path class="cls-1" d="M76.84,15.36h-20.67c-.71-8.61-7.56-15.36-15.91-15.36s-15.2,6.75-15.91,15.36H2.52c-.7,0-1.32.28-1.78.73-.46.46-.74,1.08-.74,1.78,0,1.39,1.13,2.52,2.52,2.52h5.16l5.67,52.82c.75,7.07,6.71,12.42,13.82,12.42h26.31c7.18,0,13.18-5.48,13.84-12.63l4.82-52.61h4.7c.7,0,1.32-.28,1.78-.74.46-.46.74-1.08.74-1.78,0-1.39-1.13-2.51-2.52-2.51ZM40.26,4.07c6.08,0,11.07,4.95,11.65,11.29h-23.3c.58-6.34,5.57-11.29,11.65-11.29ZM63.77,69.52c-.57,6.62-5.79,11.67-12.05,11.67h-22.91c-6.18,0-11.37-4.94-12.03-11.47l-4.99-49.33h56.23l-4.25,49.13Z"/>
  <rect class="cls-1" x="28.42" y="31.7" width="4.73" height="38.13" rx="2.37" ry="2.37" transform="translate(-3.03 1.96) rotate(-3.48)"/>
  <rect class="cls-1" x="46.56" y="31.7" width="4.73" height="38.13" rx="2.37" ry="2.37" transform="translate(94.68 104.41) rotate(-176.52)"/>
</svg>